<svg width="20" height="20" viewBox="0 0 20 20" fill="none" xmlns="http://www.w3.org/2000/svg">
<g filter="url(#filter0_d_101_76)">
<path d="M16 6C15.9997 4.4088 15.3674 2.88286 14.2423 1.75771C13.1171 0.632561 11.5912 0.000318145 10 0V1.2C10.9493 1.20022 11.8772 1.48178 12.6665 2.00912C13.4558 2.53646 14.0711 3.28592 14.4346 4.1628C14.6759 4.74526 14.8 5.36955 14.8 6H16ZM4 4.8V1.8C4 1.64087 4.06321 1.48826 4.17574 1.37574C4.28826 1.26321 4.44087 1.2 4.6 1.2H7.6C7.75913 1.2 7.91174 1.26321 8.02426 1.37574C8.13679 1.48826 8.2 1.64087 8.2 1.8V4.2C8.2 4.35913 8.13679 4.51174 8.02426 4.62426C7.91174 4.73679 7.75913 4.8 7.6 4.8H6.4C6.4 6.07304 6.90571 7.29394 7.80589 8.19411C8.70606 9.09429 9.92696 9.6 11.2 9.6V8.4C11.2 8.24087 11.2632 8.08826 11.3757 7.97574C11.4883 7.86321 11.6409 7.8 11.8 7.8H14.2C14.3591 7.8 14.5117 7.86321 14.6243 7.97574C14.7368 8.08826 14.8 8.24087 14.8 8.4V11.4C14.8 11.5591 14.7368 11.7117 14.6243 11.8243C14.5117 11.9368 14.3591 12 14.2 12H11.2C7.2238 12 4 8.7762 4 4.8Z" fill="#F8F8F8"/>
<path d="M13.3258 4.62279C13.5069 5.05949 13.6001 5.52763 13.6 6.00039H12.52C12.5201 5.66944 12.455 5.34171 12.3283 5.03594C12.2017 4.73016 12.0161 4.45232 11.7821 4.21831C11.5481 3.98429 11.2702 3.79867 10.9645 3.67205C10.6587 3.54544 10.331 3.48031 10 3.48039V2.40039C10.712 2.40043 11.408 2.61159 12 3.00717C12.592 3.40275 13.0533 3.96499 13.3258 4.62279Z" fill="#F8F8F8"/>
</g>
<defs>
<filter id="filter0_d_101_76" x="0" y="0" width="20" height="20" filterUnits="userSpaceOnUse" color-interpolation-filters="sRGB">
<feFlood flood-opacity="0" result="BackgroundImageFix"/>
<feColorMatrix in="SourceAlpha" type="matrix" values="0 0 0 0 0 0 0 0 0 0 0 0 0 0 0 0 0 0 127 0" result="hardAlpha"/>
<feOffset dy="4"/>
<feGaussianBlur stdDeviation="2"/>
<feComposite in2="hardAlpha" operator="out"/>
<feColorMatrix type="matrix" values="0 0 0 0 0 0 0 0 0 0 0 0 0 0 0 0 0 0 0.25 0"/>
<feBlend mode="normal" in2="BackgroundImageFix" result="effect1_dropShadow_101_76"/>
<feBlend mode="normal" in="SourceGraphic" in2="effect1_dropShadow_101_76" result="shape"/>
</filter>
</defs>
</svg>
